<svg width="12" height="9" viewBox="0 0 12 9" fill="#81A1FD" xmlns="http://www.w3.org/2000/svg">
<path d="M10.1212 0.301083C10.327 0.108911 10.6047 0.000757086 10.8944 3.95963e-06C11.1841 -0.000749167 11.4624 0.105959 11.6693 0.297059C11.8762 0.488158 11.9949 0.748295 11.9998 1.02123C12.0048 1.29416 11.8955 1.55796 11.6957 1.75559L5.82705 8.66795C5.72619 8.77032 5.60445 8.85247 5.46913 8.90949C5.3338 8.96651 5.18766 8.99724 5.03944 8.99982C4.89123 9.00241 4.74398 8.9768 4.60651 8.92454C4.46903 8.87228 4.34416 8.79443 4.23934 8.69565L0.350925 5.0303C0.242598 4.93519 0.155712 4.82049 0.0954499 4.69305C0.0351876 4.56561 0.00278364 4.42803 0.00017159 4.28854C-0.00244046 4.14904 0.024793 4.01047 0.0802466 3.88111C0.1357 3.75174 0.218238 3.63423 0.322937 3.53557C0.427636 3.43692 0.55235 3.35914 0.68964 3.30689C0.82693 3.25464 0.973983 3.22898 1.12203 3.23144C1.27007 3.2339 1.41607 3.26443 1.55132 3.32122C1.68657 3.378 1.80829 3.45987 1.90923 3.56194L4.98762 6.46126L10.0933 0.331559C10.1024 0.320826 10.1122 0.310647 10.1227 0.301083H10.1212Z"/>
</svg>
