<svg width="17" height="20" viewBox="0 0 17 20" fill="none" xmlns="http://www.w3.org/2000/svg">
<path d="M1.30769 1.33333C0.960871 1.33333 0.628254 1.47381 0.383014 1.72386C0.137774 1.97391 0 2.31304 0 2.66667V4C0 4.35362 0.137774 4.69276 0.383014 4.94281C0.628254 5.19286 0.960871 5.33333 1.30769 5.33333H1.96154V17.3333C1.96154 18.0406 2.23709 18.7189 2.72757 19.219C3.21805 19.719 3.88328 20 4.57692 20H12.4231C13.1167 20 13.782 19.719 14.2724 19.219C14.7629 18.7189 15.0385 18.0406 15.0385 17.3333V5.33333H15.6923C16.0391 5.33333 16.3717 5.19286 16.617 4.94281C16.8622 4.69276 17 4.35362 17 4V2.66667C17 2.31304 16.8622 1.97391 16.617 1.72386C16.3717 1.47381 16.0391 1.33333 15.6923 1.33333H11.1154C11.1154 0.979711 10.9776 0.640573 10.7324 0.390524C10.4871 0.140476 10.1545 0 9.80769 0L7.19231 0C6.84549 0 6.51287 0.140476 6.26763 0.390524C6.02239 0.640573 5.88462 0.979711 5.88462 1.33333H1.30769ZM5.23077 6.66667C5.40418 6.66667 5.57049 6.7369 5.69311 6.86193C5.81573 6.98695 5.88462 7.15652 5.88462 7.33333V16.6667C5.88462 16.8435 5.81573 17.013 5.69311 17.1381C5.57049 17.2631 5.40418 17.3333 5.23077 17.3333C5.05736 17.3333 4.89105 17.2631 4.76843 17.1381C4.64581 17.013 4.57692 16.8435 4.57692 16.6667V7.33333C4.57692 7.15652 4.64581 6.98695 4.76843 6.86193C4.89105 6.7369 5.05736 6.66667 5.23077 6.66667ZM8.5 6.66667C8.67341 6.66667 8.83972 6.7369 8.96234 6.86193C9.08496 6.98695 9.15385 7.15652 9.15385 7.33333V16.6667C9.15385 16.8435 9.08496 17.013 8.96234 17.1381C8.83972 17.2631 8.67341 17.3333 8.5 17.3333C8.32659 17.3333 8.16028 17.2631 8.03766 17.1381C7.91504 17.013 7.84615 16.8435 7.84615 16.6667V7.33333C7.84615 7.15652 7.91504 6.98695 8.03766 6.86193C8.16028 6.7369 8.32659 6.66667 8.5 6.66667ZM12.4231 7.33333V16.6667C12.4231 16.8435 12.3542 17.013 12.2316 17.1381C12.109 17.2631 11.9426 17.3333 11.7692 17.3333C11.5958 17.3333 11.4295 17.2631 11.3069 17.1381C11.1843 17.013 11.1154 16.8435 11.1154 16.6667V7.33333C11.1154 7.15652 11.1843 6.98695 11.3069 6.86193C11.4295 6.7369 11.5958 6.66667 11.7692 6.66667C11.9426 6.66667 12.109 6.7369 12.2316 6.86193C12.3542 6.98695 12.4231 7.15652 12.4231 7.33333Z" fill="#81A1FD"/>
</svg>
