<svg width="20" height="20" viewBox="0 0 20 20" fill="#81A1FD" xmlns="http://www.w3.org/2000/svg">
<path d="M19.8008 1.98669C19.9284 2.11596 20 2.29105 20 2.47358C20 2.65611 19.9284 2.83119 19.8008 2.96046L18.3767 4.40042L15.6459 1.64188L17.07 0.201916C17.1981 0.0726294 17.3717 0 17.5527 0C17.7337 0 17.9073 0.0726294 18.0354 0.201916L19.8008 1.98532V1.98669ZM17.4114 5.37419L14.6806 2.61564L5.37826 12.014C5.30312 12.0899 5.24654 12.1825 5.21305 12.2843L4.11392 15.6139C4.09399 15.6746 4.09116 15.7397 4.10575 15.8019C4.12034 15.8642 4.15177 15.9211 4.19654 15.9663C4.2413 16.0115 4.29764 16.0433 4.35924 16.058C4.42084 16.0728 4.48529 16.0699 4.54538 16.0498L7.84141 14.9394C7.94213 14.906 8.03375 14.8493 8.10903 14.7739L17.4114 5.37557V5.37419Z"/>
<path fill-rule="evenodd" clip-rule="evenodd" d="M0 17.9311C0 18.4798 0.215779 19.006 0.599867 19.394C0.983955 19.782 1.50489 20 2.04807 20H17.0673C17.6105 20 18.1314 19.782 18.5155 19.394C18.8996 19.006 19.1153 18.4798 19.1153 17.9311V9.65546C19.1153 9.47255 19.0434 9.29714 18.9154 9.16781C18.7874 9.03848 18.6137 8.96582 18.4327 8.96582C18.2516 8.96582 18.0779 9.03848 17.9499 9.16781C17.8219 9.29714 17.75 9.47255 17.75 9.65546V17.9311C17.75 18.114 17.678 18.2894 17.55 18.4187C17.422 18.5481 17.2483 18.6207 17.0673 18.6207H2.04807C1.86701 18.6207 1.69337 18.5481 1.56534 18.4187C1.43731 18.2894 1.36538 18.114 1.36538 17.9311V2.75909C1.36538 2.57619 1.43731 2.40078 1.56534 2.27145C1.69337 2.14212 1.86701 2.06946 2.04807 2.06946H10.9231C11.1041 2.06946 11.2778 1.9968 11.4058 1.86747C11.5338 1.73814 11.6057 1.56272 11.6057 1.37982C11.6057 1.19692 11.5338 1.02151 11.4058 0.892175C11.2778 0.762843 11.1041 0.690186 10.9231 0.690186H2.04807C1.50489 0.690186 0.983955 0.908159 0.599867 1.29615C0.215779 1.68415 0 2.21039 0 2.75909V17.9311Z"/>
</svg>
