<svg width="23" height="25" viewBox="0 0 23 25" fill="#81A1FD" xmlns="http://www.w3.org/2000/svg">
<path d="M9.20016 0.433334C9.34983 0.618673 9.44153 0.845495 9.4634 1.08449C9.48527 1.32349 9.4363 1.56367 9.32283 1.77401C8.43633 3.43264 7.97337 5.29181 7.97654 7.18049C7.97654 13.4636 13.0029 18.5513 19.1977 18.5513C20.0057 18.5513 20.7924 18.4653 21.5483 18.3013C21.78 18.2501 22.0214 18.2697 22.2423 18.3575C22.4632 18.4453 22.6538 18.5975 22.7903 18.795C22.9344 19.0004 23.0079 19.2486 22.9993 19.501C22.9907 19.7533 22.9005 19.9957 22.7428 20.1904C21.5402 21.6958 20.023 22.9088 18.3019 23.7408C16.5809 24.5729 14.6993 25.0031 12.7944 25C5.72556 25 0 19.1966 0 12.0463C0 6.66484 3.24152 2.04903 7.85694 0.0926944C8.08684 -0.00632247 8.34207 -0.0266452 8.58428 0.0347789C8.82649 0.0962031 9.04261 0.236058 9.20016 0.433334Z"/>
</svg>
