<svg width="175" height="25" viewBox="0 0 175 25" fill="none" xmlns="http://www.w3.org/2000/svg">
<path fill-rule="evenodd" clip-rule="evenodd" d="M1.25926 0C0.925283 0 0.604985 0.131696 0.368828 0.366117C0.132671 0.600537 0 0.91848 0 1.25V3.75C0 4.08152 0.132671 4.39946 0.368828 4.63388C0.604985 4.86831 0.925283 5 1.25926 5H3.77778C4.11175 5 4.43205 4.86831 4.66821 4.63388C4.90436 4.39946 5.03704 4.08152 5.03704 3.75V1.25C5.03704 0.91848 4.90436 0.600537 4.66821 0.366117C4.43205 0.131696 4.11175 0 3.77778 0H1.25926ZM3.77778 1.25H1.25926V3.75H3.77778V1.25Z" fill="#81A1FD"/>
<path d="M8.81483 2.5C8.81483 2.16848 8.9475 1.85054 9.18366 1.61612C9.41981 1.3817 9.74011 1.25 10.0741 1.25H32.7407C33.0747 1.25 33.395 1.3817 33.6312 1.61612C33.8673 1.85054 34 2.16848 34 2.5C34 2.83152 33.8673 3.14946 33.6312 3.38388C33.395 3.6183 33.0747 3.75 32.7407 3.75H10.0741C9.74011 3.75 9.41981 3.6183 9.18366 3.38388C8.9475 3.14946 8.81483 2.83152 8.81483 2.5ZM10.0741 11.25C9.74011 11.25 9.41981 11.3817 9.18366 11.6161C8.9475 11.8505 8.81483 12.1685 8.81483 12.5C8.81483 12.8315 8.9475 13.1495 9.18366 13.3839C9.41981 13.6183 9.74011 13.75 10.0741 13.75H32.7407C33.0747 13.75 33.395 13.6183 33.6312 13.3839C33.8673 13.1495 34 12.8315 34 12.5C34 12.1685 33.8673 11.8505 33.6312 11.6161C33.395 11.3817 33.0747 11.25 32.7407 11.25H10.0741ZM10.0741 21.25C9.74011 21.25 9.41981 21.3817 9.18366 21.6161C8.9475 21.8505 8.81483 22.1685 8.81483 22.5C8.81483 22.8315 8.9475 23.1495 9.18366 23.3839C9.41981 23.6183 9.74011 23.75 10.0741 23.75H32.7407C33.0747 23.75 33.395 23.6183 33.6312 23.3839C33.8673 23.1495 34 22.8315 34 22.5C34 22.1685 33.8673 21.8505 33.6312 21.6161C33.395 21.3817 33.0747 21.25 32.7407 21.25H10.0741Z" fill="#81A1FD"/>
<path fill-rule="evenodd" clip-rule="evenodd" d="M0 11.25C0 10.9185 0.132671 10.6005 0.368828 10.3661C0.604985 10.1317 0.925283 10 1.25926 10H3.77778C4.11175 10 4.43205 10.1317 4.66821 10.3661C4.90436 10.6005 5.03704 10.9185 5.03704 11.25V13.75C5.03704 14.0815 4.90436 14.3995 4.66821 14.6339C4.43205 14.8683 4.11175 15 3.77778 15H1.25926C0.925283 15 0.604985 14.8683 0.368828 14.6339C0.132671 14.3995 0 14.0815 0 13.75V11.25ZM1.25926 11.25H3.77778V13.75H1.25926V11.25ZM1.25926 20C0.925283 20 0.604985 20.1317 0.368828 20.3661C0.132671 20.6005 0 20.9185 0 21.25V23.75C0 24.0815 0.132671 24.3995 0.368828 24.6339C0.604985 24.8683 0.925283 25 1.25926 25H3.77778C4.11175 25 4.43205 24.8683 4.66821 24.6339C4.90436 24.3995 5.03704 24.0815 5.03704 23.75V21.25C5.03704 20.9185 4.90436 20.6005 4.66821 20.3661C4.43205 20.1317 4.11175 20 3.77778 20H1.25926ZM3.77778 21.25H1.25926V23.75H3.77778V21.25Z" fill="#81A1FD"/>
<path d="M63.3433 5.15527H57.6304V21H55.2988V5.15527H49.5981V3.22656H63.3433V5.15527Z" fill="#81A1FD"/>
<path d="M67.5571 14.2739C67.5571 12.98 67.8094 11.8162 68.314 10.7827C68.8267 9.74919 69.5347 8.95166 70.438 8.39014C71.3494 7.82861 72.387 7.54785 73.5508 7.54785C75.3493 7.54785 76.8019 8.17041 77.9087 9.41553C79.0236 10.6606 79.5811 12.3167 79.5811 14.3838V14.5425C79.5811 15.8283 79.3328 16.9839 78.8364 18.0093C78.3481 19.0265 77.6442 19.82 76.7246 20.3896C75.8132 20.9593 74.7633 21.2441 73.5752 21.2441C71.7848 21.2441 70.3322 20.6216 69.2173 19.3765C68.1105 18.1313 67.5571 16.4834 67.5571 14.4326V14.2739ZM69.8276 14.5425C69.8276 16.0073 70.1654 17.1833 70.8408 18.0703C71.5244 18.9574 72.4359 19.4009 73.5752 19.4009C74.7227 19.4009 75.6341 18.9533 76.3096 18.0581C76.985 17.1548 77.3228 15.8934 77.3228 14.2739C77.3228 12.8254 76.9769 11.6535 76.2852 10.7583C75.6016 9.85498 74.6901 9.40332 73.5508 9.40332C72.4359 9.40332 71.5366 9.84684 70.853 10.7339C70.1694 11.6209 69.8276 12.8905 69.8276 14.5425Z" fill="#81A1FD"/>
<path d="M86.5171 21V3.22656H91.5342C93.0804 3.22656 94.4476 3.56836 95.6357 4.25195C96.8239 4.93555 97.7394 5.90804 98.3823 7.16943C99.0334 8.43083 99.363 9.87939 99.3711 11.5151V12.6504C99.3711 14.3268 99.0456 15.7957 98.3945 17.0571C97.7516 18.3185 96.828 19.2869 95.6235 19.9624C94.4272 20.6379 93.0316 20.9837 91.4365 21H86.5171ZM88.8608 5.15527V19.0835H91.3267C93.1333 19.0835 94.5371 18.522 95.5381 17.3989C96.5472 16.2759 97.0518 14.6768 97.0518 12.6016V11.564C97.0518 9.54574 96.5757 7.97917 95.6235 6.86426C94.6795 5.74121 93.3368 5.17155 91.5952 5.15527H88.8608Z" fill="#81A1FD"/>
<path d="M105.721 14.2739C105.721 12.98 105.973 11.8162 106.478 10.7827C106.991 9.74919 107.699 8.95166 108.602 8.39014C109.514 7.82861 110.551 7.54785 111.715 7.54785C113.513 7.54785 114.966 8.17041 116.073 9.41553C117.188 10.6606 117.745 12.3167 117.745 14.3838V14.5425C117.745 15.8283 117.497 16.9839 117 18.0093C116.512 19.0265 115.808 19.82 114.889 20.3896C113.977 20.9593 112.927 21.2441 111.739 21.2441C109.949 21.2441 108.496 20.6216 107.381 19.3765C106.275 18.1313 105.721 16.4834 105.721 14.4326V14.2739ZM107.992 14.5425C107.992 16.0073 108.329 17.1833 109.005 18.0703C109.688 18.9574 110.6 19.4009 111.739 19.4009C112.887 19.4009 113.798 18.9533 114.474 18.0581C115.149 17.1548 115.487 15.8934 115.487 14.2739C115.487 12.8254 115.141 11.6535 114.449 10.7583C113.766 9.85498 112.854 9.40332 111.715 9.40332C110.6 9.40332 109.701 9.84684 109.017 10.7339C108.333 11.6209 107.992 12.8905 107.992 14.5425Z" fill="#81A1FD"/>
<path d="M127.037 19.0835H135.46V21H124.681V3.22656H127.037V19.0835Z" fill="#81A1FD"/>
<path d="M143.983 21H141.725V7.79199H143.983V21ZM141.542 4.28857C141.542 3.92236 141.651 3.61312 141.871 3.36084C142.099 3.10856 142.433 2.98242 142.872 2.98242C143.312 2.98242 143.645 3.10856 143.873 3.36084C144.101 3.61312 144.215 3.92236 144.215 4.28857C144.215 4.65479 144.101 4.95996 143.873 5.2041C143.645 5.44824 143.312 5.57031 142.872 5.57031C142.433 5.57031 142.099 5.44824 141.871 5.2041C141.651 4.95996 141.542 4.65479 141.542 4.28857Z" fill="#81A1FD"/>
<path d="M159.049 17.4966C159.049 16.8862 158.817 16.4142 158.353 16.0806C157.897 15.7388 157.096 15.4458 155.948 15.2017C154.809 14.9575 153.902 14.6646 153.226 14.3228C152.559 13.981 152.062 13.5741 151.737 13.1021C151.419 12.63 151.261 12.0685 151.261 11.4175C151.261 10.3351 151.716 9.4196 152.628 8.6709C153.548 7.9222 154.719 7.54785 156.144 7.54785C157.641 7.54785 158.854 7.93441 159.781 8.70752C160.717 9.48063 161.185 10.4694 161.185 11.6738H158.915C158.915 11.0553 158.65 10.5223 158.121 10.0747C157.6 9.62712 156.941 9.40332 156.144 9.40332C155.322 9.40332 154.679 9.58236 154.215 9.94043C153.751 10.2985 153.519 10.7664 153.519 11.3442C153.519 11.8895 153.735 12.3005 154.166 12.5771C154.597 12.8538 155.375 13.1183 156.498 13.3706C157.629 13.6229 158.544 13.924 159.244 14.2739C159.944 14.6239 160.461 15.047 160.794 15.5435C161.136 16.0317 161.307 16.6299 161.307 17.3379C161.307 18.5179 160.835 19.466 159.891 20.1821C158.947 20.8901 157.722 21.2441 156.217 21.2441C155.159 21.2441 154.223 21.057 153.409 20.6826C152.595 20.3083 151.957 19.7874 151.493 19.1201C151.037 18.4447 150.809 17.7163 150.809 16.9351H153.067C153.108 17.6919 153.409 18.2941 153.971 18.7417C154.54 19.1812 155.289 19.4009 156.217 19.4009C157.071 19.4009 157.755 19.23 158.268 18.8882C158.788 18.5382 159.049 18.0744 159.049 17.4966Z" fill="#81A1FD"/>
<path d="M171.063 4.59375V7.79199H173.529V9.5376H171.063V17.7285C171.063 18.2575 171.173 18.6562 171.393 18.9248C171.612 19.1852 171.987 19.3154 172.516 19.3154C172.776 19.3154 173.134 19.2666 173.59 19.1689V21C172.996 21.1628 172.418 21.2441 171.856 21.2441C170.847 21.2441 170.086 20.939 169.574 20.3286C169.061 19.7183 168.805 18.8516 168.805 17.7285V9.5376H166.4V7.79199H168.805V4.59375H171.063Z" fill="#81A1FD"/>
</svg>
